<svg width="74" height="74" fill="none" xmlns="http://www.w3.org/2000/svg"><rect width="74" height="74" rx="37" fill="url(#a)"/><path d="M37 48.377A12.378 12.378 0 1 1 49.377 36 12.391 12.391 0 0 1 37 48.377Zm0-23.62A11.242 11.242 0 1 0 48.242 36 11.255 11.255 0 0 0 37 24.758Z" fill="#fff"/><path d="M37 45.444A9.445 9.445 0 1 1 46.444 36 9.455 9.455 0 0 1 37 45.444Zm0-17.753A8.309 8.309 0 1 0 45.31 36 8.319 8.319 0 0 0 37 27.69Z" fill="#fff"/><path d="M37.945 36.182H35.06a.567.567 0 0 1-.568-.568v-4.64a.567.567 0 0 1 .568-.567h2.886a2.887 2.887 0 1 1 0 5.775Zm-2.319-1.136h2.32a1.752 1.752 0 1 0 0-3.504h-2.32v3.505Z" fill="#fff"/><path d="M38.683 40.824h-3.624a.568.568 0 0 1-.568-.567v-4.643a.568.568 0 0 1 .568-.567h3.624a2.888 2.888 0 0 1 0 5.775v.002Zm-3.057-1.135h3.057a1.752 1.752 0 1 0 0-3.505h-3.057v3.505Zm-.567-8.147h-.829a.568.568 0 0 1 0-1.135h.829a.567.567 0 1 1 0 1.135Z" fill="#fff"/><path d="M35.524 31.542a.567.567 0 0 1-.567-.568V29.93a.568.568 0 0 1 1.135 0v1.044a.568.568 0 0 1-.568.568Zm1.808 0a.567.567 0 0 1-.568-.568V29.93a.568.568 0 0 1 1.135 0v1.044a.568.568 0 0 1-.567.568Zm-1.808 10.324a.568.568 0 0 1-.567-.568v-1.041a.568.568 0 0 1 1.135 0V41.3a.568.568 0 0 1-.568.565Zm1.808 0a.568.568 0 0 1-.568-.568v-1.041a.568.568 0 0 1 1.135 0V41.3a.568.568 0 0 1-.567.565Z" fill="#fff"/><path d="M35.059 40.824h-.829a.567.567 0 1 1 0-1.135h.829a.568.568 0 0 1 0 1.135ZM37 24.758a.567.567 0 0 1-.568-.568v-3.937a.568.568 0 1 1 1.136 0v3.937a.567.567 0 0 1-.568.568Z" fill="#fff"/><path d="M37 20.821a2.343 2.343 0 1 1 0-4.685 2.343 2.343 0 0 1 0 4.685Zm0-3.55a1.208 1.208 0 1 0 0 2.415 1.208 1.208 0 0 0 0-2.416Zm0 35.043a.568.568 0 0 1-.568-.567V47.81a.567.567 0 1 1 1.136 0v3.937a.567.567 0 0 1-.568.567Z" fill="#fff"/><path d="M37 55.865a2.343 2.343 0 1 1 0-4.685 2.343 2.343 0 0 1 0 4.685Zm0-3.55a1.207 1.207 0 1 0 0 2.413 1.207 1.207 0 0 0 0-2.414Zm15.747-15.747H48.81a.568.568 0 0 1 0-1.136h3.937a.568.568 0 0 1 0 1.136Z" fill="#fff"/><path d="M54.521 38.343a2.343 2.343 0 1 1 0-4.687 2.343 2.343 0 0 1 0 4.687Zm0-3.55a1.208 1.208 0 1 0 0 2.415 1.208 1.208 0 0 0 0-2.416ZM25.19 36.568h-3.937a.568.568 0 0 1 0-1.136h3.937a.568.568 0 0 1 0 1.136Z" fill="#fff"/><path d="M19.478 38.343a2.343 2.343 0 1 1 0-4.687 2.343 2.343 0 0 1 0 4.687Zm0-3.55a1.208 1.208 0 1 0 0 2.415 1.208 1.208 0 0 0 0-2.416Zm7.703 14.901H22.65a.568.568 0 0 1 0-1.135h4.218l2.27-3.641a.568.568 0 1 1 .966.6l-2.436 3.909a.567.567 0 0 1-.487.267Z" fill="#fff"/><path d="M20.875 51.47a2.343 2.343 0 1 1 .001-4.686 2.343 2.343 0 0 1 0 4.686Zm0-3.551a1.209 1.209 0 1 0 .002 2.417 1.209 1.209 0 0 0-.002-2.417Zm8.747-20.569a.568.568 0 0 1-.483-.268l-2.27-3.641h-4.22a.568.568 0 0 1 0-1.135h4.532a.567.567 0 0 1 .482.267l2.436 3.909a.568.568 0 0 1-.477.868Z" fill="#fff"/><path d="M20.875 25.216a2.343 2.343 0 1 1 .001-4.685 2.343 2.343 0 0 1 0 4.685Zm0-3.55a1.208 1.208 0 1 0 .001 2.415 1.208 1.208 0 0 0 0-2.415ZM51.35 49.694h-4.53a.568.568 0 0 1-.482-.267l-2.439-3.909a.568.568 0 1 1 .965-.6l2.27 3.641h4.22a.568.568 0 0 1 0 1.135h-.003Z" fill="#fff"/><path d="M53.125 51.47a2.343 2.343 0 1 1 0-4.687 2.343 2.343 0 0 1 0 4.687Zm0-3.551a1.208 1.208 0 1 0 0 2.416 1.208 1.208 0 0 0 0-2.416ZM44.379 27.35a.568.568 0 0 1-.482-.868l2.436-3.909a.568.568 0 0 1 .482-.267h4.534a.568.568 0 0 1 0 1.135h-4.217l-2.27 3.641a.568.568 0 0 1-.483.268Z" fill="#fff"/><path d="M53.125 25.216a2.343 2.343 0 1 1 0-4.686 2.343 2.343 0 0 1 0 4.686Zm0-3.55a1.208 1.208 0 1 0 0 2.415 1.208 1.208 0 0 0 0-2.415Z" fill="#fff"/><defs><linearGradient id="a" x1="37" y1="0" x2="37" y2="74" gradientUnits="userSpaceOnUse"><stop stop-color="#84D8ED"/><stop offset="1" stop-color="#4292BB"/></linearGradient></defs></svg>