<svg width="74" height="74" fill="none" xmlns="http://www.w3.org/2000/svg"><rect width="74" height="74" rx="37" fill="url(#a)"/><path d="M21.064 51.697H37V50.47H21.064a1.839 1.839 0 0 1-1.838-1.84V21.665c0-1.016.823-1.838 1.838-1.838h26.968c1.016 0 1.839.822 1.839 1.838v14.097h1.226V21.664a3.068 3.068 0 0 0-3.065-3.064H21.065A3.068 3.068 0 0 0 18 21.664v26.968a3.069 3.069 0 0 0 3.064 3.065Z" fill="#000"/><path d="M20.452 21.052h1.225v1.225h-1.225v-1.226Zm2.451 0h1.226v1.225h-1.226v-1.226Zm2.452 0h1.226v1.225h-1.226v-1.226Zm-4.903 2.451h28.193v1.226H20.452v-1.226Zm6.308 2.631-1.557 1.557a3.074 3.074 0 1 0 .867.867L27.627 27l-.867-.867Zm-3.244 5.95a1.839 1.839 0 0 1 0-3.678c.273.001.542.064.788.184l-1.221 1.22.866.868 1.222-1.22c.12.245.183.514.184.787a1.838 1.838 0 0 1-1.84 1.838Zm4.904-3.678h10.418v1.226H28.42v-1.226Zm0 2.452h4.29v1.226h-4.29v-1.226Zm5.516 0h8.58v1.226h-8.58v-1.226Zm6.129-2.452h6.129v1.226h-6.13v-1.226ZM26.76 33.489l-1.557 1.557a3.074 3.074 0 1 0 .867.866l1.557-1.556-.867-.867Zm-3.244 5.95a1.839 1.839 0 0 1 0-3.678c.273 0 .542.064.788.184l-1.221 1.221.866.866 1.222-1.22c.12.245.183.514.184.788a1.839 1.839 0 0 1-1.84 1.838Zm4.904-3.679h10.418v1.227H28.42V35.76Zm0 2.453h4.29v1.225h-4.29v-1.225Zm5.516 0h4.903v1.225h-4.903v-1.225Zm6.129-2.453h2.451v1.227h-2.451V35.76ZM26.76 40.844 25.203 42.4a3.074 3.074 0 1 0 .867.866l1.557-1.556-.867-.867Zm-3.244 5.95a1.839 1.839 0 0 1 0-3.678c.273 0 .542.063.788.184l-1.221 1.22.866.867 1.222-1.22c.12.245.183.514.184.788a1.839 1.839 0 0 1-1.84 1.838Zm4.904-3.678h7.967v1.226h-7.968v-1.226Zm0 2.452h4.29v1.225h-4.29v-1.225Zm5.516 0h2.451v1.225h-2.451v-1.225Zm12.87 9.806A9.193 9.193 0 0 0 56 46.18a9.193 9.193 0 1 0-18.387 0 9.204 9.204 0 0 0 9.194 9.194Zm0-17.161a7.968 7.968 0 1 1-7.967 7.968 7.977 7.977 0 0 1 7.968-7.968Z" fill="#000"/><path d="m43.068 46.52-1.097.547 1.226 2.452a.612.612 0 0 0 .979.16l7.354-7.356-.866-.866-6.754 6.753-.842-1.69Z" fill="#000"/><path d="M21.064 51.697H37V50.47H21.064a1.839 1.839 0 0 1-1.838-1.84V21.665c0-1.016.823-1.838 1.838-1.838h26.968c1.016 0 1.839.822 1.839 1.838v14.097h1.226V21.664a3.068 3.068 0 0 0-3.065-3.064H21.065A3.068 3.068 0 0 0 18 21.664v26.968a3.069 3.069 0 0 0 3.064 3.065Z" fill="#fff"/><path d="M20.452 21.052h1.225v1.225h-1.225v-1.226Zm2.451 0h1.226v1.225h-1.226v-1.226Zm2.452 0h1.226v1.225h-1.226v-1.226Zm-4.903 2.451h28.193v1.226H20.452v-1.226Zm6.308 2.631-1.557 1.557a3.074 3.074 0 1 0 .867.867L27.627 27l-.867-.867Zm-3.244 5.95a1.839 1.839 0 0 1 0-3.678c.273.001.542.064.788.184l-1.221 1.22.866.868 1.222-1.22c.12.245.183.514.184.787a1.838 1.838 0 0 1-1.84 1.838Zm4.904-3.678h10.418v1.226H28.42v-1.226Zm0 2.452h4.29v1.226h-4.29v-1.226Zm5.516 0h8.58v1.226h-8.58v-1.226Zm6.129-2.452h6.129v1.226h-6.13v-1.226ZM26.76 33.489l-1.557 1.557a3.074 3.074 0 1 0 .867.866l1.557-1.556-.867-.867Zm-3.244 5.95a1.839 1.839 0 0 1 0-3.678c.273 0 .542.064.788.184l-1.221 1.221.866.866 1.222-1.22c.12.245.183.514.184.788a1.839 1.839 0 0 1-1.84 1.838Zm4.904-3.679h10.418v1.227H28.42V35.76Zm0 2.453h4.29v1.225h-4.29v-1.225Zm5.516 0h4.903v1.225h-4.903v-1.225Zm6.129-2.453h2.451v1.227h-2.451V35.76ZM26.76 40.844 25.203 42.4a3.074 3.074 0 1 0 .867.866l1.557-1.556-.867-.867Zm-3.244 5.95a1.839 1.839 0 0 1 0-3.678c.273 0 .542.063.788.184l-1.221 1.22.866.867 1.222-1.22c.12.245.183.514.184.788a1.839 1.839 0 0 1-1.84 1.838Zm4.904-3.678h7.967v1.226h-7.968v-1.226Zm0 2.452h4.29v1.225h-4.29v-1.225Zm5.516 0h2.451v1.225h-2.451v-1.225Zm12.87 9.806A9.193 9.193 0 0 0 56 46.18a9.193 9.193 0 1 0-18.387 0 9.204 9.204 0 0 0 9.194 9.194Zm0-17.161a7.968 7.968 0 1 1-7.967 7.968 7.977 7.977 0 0 1 7.968-7.968Z" fill="#fff"/><path d="m43.068 46.52-1.097.547 1.226 2.452a.612.612 0 0 0 .979.16l7.354-7.356-.866-.866-6.754 6.753-.842-1.69Z" fill="#fff"/><defs><linearGradient id="a" x1="37" y1="0" x2="37" y2="74" gradientUnits="userSpaceOnUse"><stop stop-color="#8A7FD9"/><stop offset="1" stop-color="#402F8F"/></linearGradient></defs></svg>