<svg width="116" height="40" fill="none" xmlns="http://www.w3.org/2000/svg"><path d="M33.976 14.656a2.78 2.78 0 0 0 2.059-2.671v-.008a2.762 2.762 0 0 0-2.762-2.762h-.007a2.778 2.778 0 0 0-2.671 2.06 7.749 7.749 0 0 1-14.938 0 2.778 2.778 0 0 0-2.672-2.06h-.007a2.762 2.762 0 0 0-2.762 2.763v.007a2.779 2.779 0 0 0 2.059 2.671 7.748 7.748 0 0 1 0 14.938 2.778 2.778 0 0 0-2.06 2.671v.008a2.762 2.762 0 0 0 2.763 2.762h.007a2.777 2.777 0 0 0 2.671-2.06 7.749 7.749 0 0 1 14.938 0 2.779 2.779 0 0 0 2.672 2.06h.007a2.762 2.762 0 0 0 2.762-2.762v-.008a2.778 2.778 0 0 0-2.059-2.67 7.749 7.749 0 0 1 0-14.939Z" fill="#AF51C5"/><path d="M33.976 14.656a2.78 2.78 0 0 0 2.059-2.671v-.008a2.762 2.762 0 0 0-2.762-2.762h-.007a2.778 2.778 0 0 0-2.671 2.06 7.749 7.749 0 0 1-14.938 0 2.778 2.778 0 0 0-2.672-2.06h-.007a2.762 2.762 0 0 0-2.762 2.763v.007a2.779 2.779 0 0 0 2.059 2.671 7.748 7.748 0 0 1 0 14.938 2.778 2.778 0 0 0-2.06 2.671v.008a2.762 2.762 0 0 0 2.763 2.762h.007a2.777 2.777 0 0 0 2.671-2.06 7.749 7.749 0 0 1 14.938 0 2.779 2.779 0 0 0 2.672 2.06h.007a2.762 2.762 0 0 0 2.762-2.762v-.008a2.778 2.778 0 0 0-2.059-2.67 7.749 7.749 0 0 1 0-14.939Z" fill="url(#a)"/><path d="M9.614 6.636a.603.603 0 0 0 .69.114 5.513 5.513 0 0 1 6.282 1.052.613.613 0 0 0 .85.02.6.6 0 0 0 .01-.86A6.717 6.717 0 0 0 9.77 5.673a.6.6 0 0 0-.157.963Z" fill="#AF51C5"/><path d="M9.614 6.636a.603.603 0 0 0 .69.114 5.513 5.513 0 0 1 6.282 1.052.613.613 0 0 0 .85.02.6.6 0 0 0 .01-.86A6.717 6.717 0 0 0 9.77 5.673a.6.6 0 0 0-.157.963Z" fill="url(#b)"/><path d="M6.675 8.766a6.717 6.717 0 0 0 1.266 7.66.617.617 0 0 0 .808.075.602.602 0 0 0 .063-.905A5.514 5.514 0 0 1 7.752 9.3a.603.603 0 0 0-.635-.861.6.6 0 0 0-.442.326Z" fill="#AF51C5"/><path d="M6.675 8.766a6.717 6.717 0 0 0 1.266 7.66.617.617 0 0 0 .808.075.602.602 0 0 0 .063-.905A5.514 5.514 0 0 1 7.752 9.3a.603.603 0 0 0-.635-.861.6.6 0 0 0-.442.326Z" fill="url(#c)"/><path d="M35.947 37.5a5.513 5.513 0 0 1-6.283-1.053.611.611 0 0 0-.847-.019.602.602 0 0 0-.011.861 6.718 6.718 0 0 0 7.675 1.288.601.601 0 0 0-.534-1.076Z" fill="#AF51C5"/><path d="M35.947 37.5a5.513 5.513 0 0 1-6.283-1.053.611.611 0 0 0-.847-.019.602.602 0 0 0-.011.861 6.718 6.718 0 0 0 7.675 1.288.601.601 0 0 0-.534-1.076Z" fill="url(#d)"/><path d="M37.428 27.817a.61.61 0 0 0 .02.847 5.514 5.514 0 0 1 1.05 6.287.604.604 0 0 0 .635.86.6.6 0 0 0 .442-.325 6.717 6.717 0 0 0-1.285-7.68.602.602 0 0 0-.862.01Z" fill="#AF51C5"/><path d="M37.428 27.817a.61.61 0 0 0 .02.847 5.514 5.514 0 0 1 1.05 6.287.604.604 0 0 0 .635.86.6.6 0 0 0 .442-.325 6.717 6.717 0 0 0-1.285-7.68.602.602 0 0 0-.862.01Z" fill="url(#e)"/><path d="M38.5 9.301a5.513 5.513 0 0 1-1.053 6.286.61.61 0 0 0-.019.847.602.602 0 0 0 .861.011 6.718 6.718 0 0 0 1.287-7.678.6.6 0 0 0-1.13.171.604.604 0 0 0 .053.363Z" fill="#AF51C5"/><path d="M38.5 9.301a5.513 5.513 0 0 1-1.053 6.286.61.61 0 0 0-.019.847.602.602 0 0 0 .861.011 6.718 6.718 0 0 0 1.287-7.678.6.6 0 0 0-1.13.171.604.604 0 0 0 .053.363Z" fill="url(#f)"/><path d="M29.664 7.803a5.513 5.513 0 0 1 6.285-1.052.602.602 0 0 0 .75-.895.6.6 0 0 0-.215-.181 6.717 6.717 0 0 0-7.678 1.287.601.601 0 0 0 .011.86.611.611 0 0 0 .847-.019Z" fill="#AF51C5"/><path d="M29.664 7.803a5.513 5.513 0 0 1 6.285-1.052.602.602 0 0 0 .75-.895.6.6 0 0 0-.215-.181 6.717 6.717 0 0 0-7.678 1.287.601.601 0 0 0 .011.86.611.611 0 0 0 .847-.019Z" fill="url(#g)"/><path d="M16.587 36.447a5.515 5.515 0 0 1-6.285 1.052.604.604 0 0 0-.86.636.6.6 0 0 0 .325.441 6.716 6.716 0 0 0 7.678-1.287.601.601 0 0 0-.011-.861.611.611 0 0 0-.847.02Z" fill="#AF51C5"/><path d="M16.587 36.447a5.515 5.515 0 0 1-6.285 1.052.604.604 0 0 0-.86.636.6.6 0 0 0 .325.441 6.716 6.716 0 0 0 7.678-1.287.601.601 0 0 0-.011-.861.611.611 0 0 0-.847.02Z" fill="url(#h)"/><path d="M7.751 34.95a5.513 5.513 0 0 1 1.053-6.286.611.611 0 0 0 .019-.847.602.602 0 0 0-.861-.011 6.717 6.717 0 0 0-1.287 7.678.6.6 0 0 0 1.076-.535Z" fill="#AF51C5"/><path d="M7.751 34.95a5.513 5.513 0 0 1 1.053-6.286.611.611 0 0 0 .019-.847.602.602 0 0 0-.861-.011 6.717 6.717 0 0 0-1.287 7.678.6.6 0 0 0 1.076-.535Z" fill="url(#i)"/><path d="M49.26 29a.487.487 0 0 1-.36-.14.534.534 0 0 1-.12-.36v-1.4c0-.227.047-.4.14-.52.093-.133.147-.207.16-.22l6.96-9h-6.58a.463.463 0 0 1-.34-.14.463.463 0 0 1-.14-.34V15.5c0-.147.04-.267.12-.36a.487.487 0 0 1 .36-.14h9.56c.147 0 .267.047.36.14.093.093.14.213.14.36v1.38c0 .24-.087.473-.26.7l-6.82 9.04h6.8c.147 0 .267.047.36.14.093.093.14.213.14.36v1.4a.487.487 0 0 1-.14.36.534.534 0 0 1-.36.12h-9.98Zm16.945.2c-1.56 0-2.767-.4-3.62-1.2-.853-.813-1.313-1.92-1.38-3.32l-.02-.88.02-.88c.067-1.387.534-2.487 1.4-3.3.867-.813 2.067-1.22 3.6-1.22 1.534 0 2.734.407 3.6 1.22.867.813 1.333 1.913 1.4 3.3.014.16.02.453.02.88s-.006.72-.02.88c-.067 1.4-.526 2.507-1.38 3.32-.853.8-2.06 1.2-3.62 1.2Zm0-1.98c.707 0 1.254-.22 1.64-.66.387-.453.6-1.113.64-1.98.014-.133.02-.393.02-.78s-.006-.647-.02-.78c-.04-.867-.253-1.52-.64-1.96-.386-.453-.933-.68-1.64-.68-.706 0-1.253.227-1.64.68-.386.44-.6 1.093-.64 1.96l-.02.78.02.78c.04.867.254 1.527.64 1.98.387.44.934.66 1.64.66ZM73.921 29a.463.463 0 0 1-.34-.14.463.463 0 0 1-.14-.34v-9.44c0-.133.047-.247.14-.34a.463.463 0 0 1 .34-.14h1.64c.133 0 .247.047.34.14.093.093.14.207.14.34v.82c.787-1 1.9-1.5 3.34-1.5 1.227 0 2.2.407 2.92 1.22.72.8 1.08 1.893 1.08 3.28v5.62a.463.463 0 0 1-.14.34.423.423 0 0 1-.34.14h-1.76a.463.463 0 0 1-.34-.14.463.463 0 0 1-.14-.34v-5.5c0-.787-.193-1.393-.58-1.82-.373-.44-.92-.66-1.64-.66-.707 0-1.267.22-1.68.66-.4.44-.6 1.047-.6 1.82v5.5a.463.463 0 0 1-.14.34.423.423 0 0 1-.34.14h-1.76Zm16.48.2c-1.48 0-2.66-.427-3.54-1.28-.866-.867-1.326-2.08-1.38-3.64l-.02-.5.02-.5c.067-1.52.534-2.713 1.4-3.58.88-.867 2.054-1.3 3.52-1.3 1.574 0 2.787.48 3.64 1.44.867.96 1.3 2.24 1.3 3.84v.42a.463.463 0 0 1-.14.34.488.488 0 0 1-.36.14h-6.64v.16c.027.733.227 1.353.6 1.86.387.493.914.74 1.58.74.787 0 1.42-.307 1.9-.92.12-.147.214-.24.28-.28.08-.04.194-.06.34-.06h1.72c.12 0 .22.04.3.12.094.067.14.153.14.26 0 .32-.193.7-.58 1.14-.373.427-.913.8-1.62 1.12-.706.32-1.526.48-2.46.48Zm2.22-6.3v-.06c0-.787-.2-1.42-.6-1.9-.386-.48-.926-.72-1.62-.72-.693 0-1.233.24-1.62.72-.386.48-.58 1.113-.58 1.9v.06h4.42Zm5.204 6.1a.463.463 0 0 1-.34-.14.463.463 0 0 1-.14-.34v-1.98a.46.46 0 0 1 .14-.34.436.436 0 0 1 .34-.16h2c.133 0 .246.053.34.16.093.093.14.207.14.34v1.98a.464.464 0 0 1-.14.34.465.465 0 0 1-.34.14h-2Z" fill="#fff"/><defs><linearGradient id="a" x1="18.635" y1="-2.011" x2="30.727" y2="49.425" gradientUnits="userSpaceOnUse"><stop stop-color="#2F79CB"/><stop offset="1" stop-color="#AF51C5"/></linearGradient><linearGradient id="b" x1="12.106" y1="3.703" x2="12.639" y2="9.929" gradientUnits="userSpaceOnUse"><stop stop-color="#2F79CB"/><stop offset="1" stop-color="#AF51C5"/></linearGradient><linearGradient id="c" x1="6.974" y1="4.874" x2="14.806" y2="17.036" gradientUnits="userSpaceOnUse"><stop stop-color="#2F79CB"/><stop offset="1" stop-color="#AF51C5"/></linearGradient><linearGradient id="d" x1="31.299" y1="34.97" x2="31.832" y2="41.196" gradientUnits="userSpaceOnUse"><stop stop-color="#2F79CB"/><stop offset="1" stop-color="#AF51C5"/></linearGradient><linearGradient id="e" x1="38.24" y1="24.068" x2="46.084" y2="36.224" gradientUnits="userSpaceOnUse"><stop stop-color="#2F79CB"/><stop offset="1" stop-color="#AF51C5"/></linearGradient><linearGradient id="f" x1="38.24" y1="4.875" x2="46.08" y2="17.028" gradientUnits="userSpaceOnUse"><stop stop-color="#2F79CB"/><stop offset="1" stop-color="#AF51C5"/></linearGradient><linearGradient id="g" x1="31.299" y1="3.703" x2="31.833" y2="9.929" gradientUnits="userSpaceOnUse"><stop stop-color="#2F79CB"/><stop offset="1" stop-color="#AF51C5"/></linearGradient><linearGradient id="h" x1="12.104" y1="34.97" x2="12.637" y2="41.196" gradientUnits="userSpaceOnUse"><stop stop-color="#2F79CB"/><stop offset="1" stop-color="#AF51C5"/></linearGradient><linearGradient id="i" x1="6.973" y1="24.07" x2="14.813" y2="36.224" gradientUnits="userSpaceOnUse"><stop stop-color="#2F79CB"/><stop offset="1" stop-color="#AF51C5"/></linearGradient></defs></svg>