<svg width="96" height="35" fill="none" xmlns="http://www.w3.org/2000/svg"><path d="M27.976 9.656a2.78 2.78 0 0 0 2.059-2.671v-.008a2.762 2.762 0 0 0-2.762-2.762h-.007a2.778 2.778 0 0 0-2.671 2.06 7.749 7.749 0 0 1-14.939 0 2.778 2.778 0 0 0-2.671-2.06h-.007a2.762 2.762 0 0 0-2.762 2.763v.007a2.778 2.778 0 0 0 2.059 2.671 7.748 7.748 0 0 1 0 14.938 2.778 2.778 0 0 0-2.06 2.671v.008a2.762 2.762 0 0 0 2.763 2.762h.007a2.777 2.777 0 0 0 2.671-2.06 7.749 7.749 0 0 1 14.938 0 2.779 2.779 0 0 0 2.672 2.06h.007a2.762 2.762 0 0 0 2.762-2.762v-.008a2.778 2.778 0 0 0-2.059-2.67 7.749 7.749 0 0 1 0-14.939Z" fill="#AF51C5"/><path d="M27.976 9.656a2.78 2.78 0 0 0 2.059-2.671v-.008a2.762 2.762 0 0 0-2.762-2.762h-.007a2.778 2.778 0 0 0-2.671 2.06 7.749 7.749 0 0 1-14.939 0 2.778 2.778 0 0 0-2.671-2.06h-.007a2.762 2.762 0 0 0-2.762 2.763v.007a2.778 2.778 0 0 0 2.059 2.671 7.748 7.748 0 0 1 0 14.938 2.778 2.778 0 0 0-2.06 2.671v.008a2.762 2.762 0 0 0 2.763 2.762h.007a2.777 2.777 0 0 0 2.671-2.06 7.749 7.749 0 0 1 14.938 0 2.779 2.779 0 0 0 2.672 2.06h.007a2.762 2.762 0 0 0 2.762-2.762v-.008a2.778 2.778 0 0 0-2.059-2.67 7.749 7.749 0 0 1 0-14.939Z" fill="url(#a)"/><path d="M3.614 1.636a.603.603 0 0 0 .69.114 5.513 5.513 0 0 1 6.282 1.052.613.613 0 0 0 .85.02.6.6 0 0 0 .01-.86A6.717 6.717 0 0 0 3.77.673a.6.6 0 0 0-.157.963Z" fill="#AF51C5"/><path d="M3.614 1.636a.603.603 0 0 0 .69.114 5.513 5.513 0 0 1 6.282 1.052.613.613 0 0 0 .85.02.6.6 0 0 0 .01-.86A6.717 6.717 0 0 0 3.77.673a.6.6 0 0 0-.157.963Z" fill="url(#b)"/><path d="M.675 3.766a6.717 6.717 0 0 0 1.266 7.66.617.617 0 0 0 .808.075.602.602 0 0 0 .063-.905A5.514 5.514 0 0 1 1.752 4.3a.603.603 0 0 0-.635-.861.6.6 0 0 0-.442.326Z" fill="#AF51C5"/><path d="M.675 3.766a6.717 6.717 0 0 0 1.266 7.66.617.617 0 0 0 .808.075.602.602 0 0 0 .063-.905A5.514 5.514 0 0 1 1.752 4.3a.603.603 0 0 0-.635-.861.6.6 0 0 0-.442.326Z" fill="url(#c)"/><path d="M29.947 32.5a5.513 5.513 0 0 1-6.283-1.053.611.611 0 0 0-.847-.019.6.6 0 0 0-.01.861 6.718 6.718 0 0 0 7.674 1.288.601.601 0 0 0 .156-.962.603.603 0 0 0-.69-.114Z" fill="#AF51C5"/><path d="M29.947 32.5a5.513 5.513 0 0 1-6.283-1.053.611.611 0 0 0-.847-.019.6.6 0 0 0-.01.861 6.718 6.718 0 0 0 7.674 1.288.601.601 0 0 0 .156-.962.603.603 0 0 0-.69-.114Z" fill="url(#d)"/><path d="M31.428 22.817a.61.61 0 0 0 .02.846 5.513 5.513 0 0 1 1.05 6.288.603.603 0 0 0 .635.86.598.598 0 0 0 .442-.325 6.717 6.717 0 0 0-1.285-7.68.602.602 0 0 0-.862.01Z" fill="#AF51C5"/><path d="M31.428 22.817a.61.61 0 0 0 .02.846 5.513 5.513 0 0 1 1.05 6.288.603.603 0 0 0 .635.86.598.598 0 0 0 .442-.325 6.717 6.717 0 0 0-1.285-7.68.602.602 0 0 0-.862.01Z" fill="url(#e)"/><path d="M32.5 4.301a5.513 5.513 0 0 1-1.053 6.286.61.61 0 0 0-.019.847.599.599 0 0 0 .861.011 6.717 6.717 0 0 0 1.287-7.678.6.6 0 0 0-1.13.171.604.604 0 0 0 .053.363Z" fill="#AF51C5"/><path d="M32.5 4.301a5.513 5.513 0 0 1-1.053 6.286.61.61 0 0 0-.019.847.599.599 0 0 0 .861.011 6.717 6.717 0 0 0 1.287-7.678.6.6 0 0 0-1.13.171.604.604 0 0 0 .053.363Z" fill="url(#f)"/><path d="M23.664 2.803a5.513 5.513 0 0 1 6.285-1.052.602.602 0 0 0 .75-.895.6.6 0 0 0-.215-.181 6.717 6.717 0 0 0-7.678 1.287.601.601 0 0 0 .011.86.611.611 0 0 0 .847-.019Z" fill="#AF51C5"/><path d="M23.664 2.803a5.513 5.513 0 0 1 6.285-1.052.602.602 0 0 0 .75-.895.6.6 0 0 0-.215-.181 6.717 6.717 0 0 0-7.678 1.287.601.601 0 0 0 .011.86.611.611 0 0 0 .847-.019Z" fill="url(#g)"/><path d="M10.587 31.447A5.515 5.515 0 0 1 4.302 32.5a.604.604 0 0 0-.838.355.6.6 0 0 0 .303.722 6.716 6.716 0 0 0 7.678-1.287.602.602 0 0 0-.011-.861.611.611 0 0 0-.847.02Z" fill="#AF51C5"/><path d="M10.587 31.447A5.515 5.515 0 0 1 4.302 32.5a.604.604 0 0 0-.838.355.6.6 0 0 0 .303.722 6.716 6.716 0 0 0 7.678-1.287.602.602 0 0 0-.011-.861.611.611 0 0 0-.847.02Z" fill="url(#h)"/><path d="M1.751 29.95a5.513 5.513 0 0 1 1.053-6.287.612.612 0 0 0 .019-.846.6.6 0 0 0-.861-.012 6.717 6.717 0 0 0-1.287 7.678.6.6 0 0 0 1.13-.17.603.603 0 0 0-.054-.364Z" fill="#AF51C5"/><path d="M1.751 29.95a5.513 5.513 0 0 1 1.053-6.287.612.612 0 0 0 .019-.846.6.6 0 0 0-.861-.012 6.717 6.717 0 0 0-1.287 7.678.6.6 0 0 0 1.13-.17.603.603 0 0 0-.054-.364Z" fill="url(#i)"/><path d="M43.26 24a.463.463 0 0 1-.34-.14.487.487 0 0 1-.14-.36v-1.4c0-.2.04-.36.12-.48.08-.12.14-.207.18-.26l6.96-9h-6.58a.487.487 0 0 1-.36-.14.505.505 0 0 1-.12-.34V10.5c0-.147.04-.267.12-.36a.487.487 0 0 1 .36-.14h9.56c.147 0 .267.047.36.14.093.093.14.213.14.36v1.38c0 .16-.027.293-.08.4a2.222 2.222 0 0 1-.18.3l-6.82 9.04h6.8c.147 0 .267.047.36.14.093.093.14.213.14.36v1.4a.463.463 0 0 1-.14.34.487.487 0 0 1-.36.14h-9.98Zm16.945.2c-1.066 0-1.966-.187-2.7-.56a3.957 3.957 0 0 1-1.66-1.58c-.373-.68-.587-1.473-.64-2.38-.013-.24-.02-.533-.02-.88s.007-.64.02-.88c.053-.92.273-1.713.66-2.38.4-.68.96-1.207 1.68-1.58.733-.373 1.62-.56 2.66-.56s1.92.187 2.64.56c.733.373 1.293.9 1.68 1.58.4.667.627 1.46.68 2.38.014.24.02.533.02.88s-.006.64-.02.88c-.053.907-.273 1.7-.66 2.38-.373.68-.927 1.207-1.66 1.58-.72.373-1.613.56-2.68.56Zm0-1.98c.707 0 1.254-.22 1.64-.66.387-.453.6-1.113.64-1.98.014-.2.02-.46.02-.78s-.007-.58-.02-.78c-.04-.853-.253-1.507-.64-1.96-.386-.453-.933-.68-1.64-.68-.706 0-1.253.227-1.64.68-.386.453-.6 1.107-.64 1.96-.013.2-.02.46-.02.78s.007.58.02.78c.04.867.254 1.527.64 1.98.387.44.934.66 1.64.66ZM67.921 24a.463.463 0 0 1-.34-.14.463.463 0 0 1-.14-.34v-9.44c0-.133.047-.247.14-.34a.463.463 0 0 1 .34-.14h1.64c.133 0 .247.047.34.14.093.093.14.207.14.34v.82c.347-.427.787-.78 1.32-1.06.547-.293 1.22-.44 2.02-.44.813 0 1.52.187 2.12.56.6.36 1.06.873 1.38 1.54.333.667.5 1.467.5 2.4v5.62a.463.463 0 0 1-.14.34.463.463 0 0 1-.34.14h-1.76a.463.463 0 0 1-.34-.14.463.463 0 0 1-.14-.34v-5.5c0-.773-.193-1.38-.58-1.82-.373-.44-.92-.66-1.64-.66-.693 0-1.247.22-1.66.66-.413.44-.62 1.047-.62 1.82v5.5a.463.463 0 0 1-.14.34.463.463 0 0 1-.34.14h-1.76Zm16.48.2c-1.48 0-2.653-.427-3.52-1.28-.866-.853-1.333-2.067-1.4-3.64a5.15 5.15 0 0 1-.02-.5c0-.213.007-.38.02-.5.054-1 .28-1.867.68-2.6a4.207 4.207 0 0 1 1.7-1.68c.72-.4 1.567-.6 2.54-.6 1.08 0 1.987.227 2.72.68a4.171 4.171 0 0 1 1.66 1.86c.374.787.56 1.7.56 2.74v.42a.463.463 0 0 1-.14.34.488.488 0 0 1-.36.14h-6.64v.16c.014.467.1.9.26 1.3.174.387.42.7.74.94.334.24.727.36 1.18.36.374 0 .687-.053.94-.16a2.565 2.565 0 0 0 .96-.76c.12-.16.214-.253.28-.28.08-.04.194-.06.34-.06h1.72c.134 0 .24.04.32.12.094.08.134.18.12.3-.013.213-.126.473-.34.78-.2.307-.493.607-.88.9-.386.293-.873.54-1.46.74-.573.187-1.233.28-1.98.28Zm-2.2-6.3h4.42v-.06c0-.52-.086-.973-.26-1.36a2.15 2.15 0 0 0-.76-.92c-.333-.227-.733-.34-1.2-.34-.466 0-.866.113-1.2.34a2.148 2.148 0 0 0-.76.92c-.16.387-.24.84-.24 1.36v.06Zm9.624 6.1a.463.463 0 0 1-.34-.14.463.463 0 0 1-.14-.34v-1.98c0-.147.046-.267.14-.36a.463.463 0 0 1 .34-.14h2c.133 0 .246.047.34.14.093.093.14.213.14.36v1.98a.463.463 0 0 1-.14.34.463.463 0 0 1-.34.14h-2Z" fill="#fff"/><defs><linearGradient id="a" x1="12.635" y1="-7.011" x2="24.727" y2="44.425" gradientUnits="userSpaceOnUse"><stop stop-color="#2F79CB"/><stop offset="1" stop-color="#AF51C5"/></linearGradient><linearGradient id="b" x1="6.106" y1="-1.297" x2="6.639" y2="4.929" gradientUnits="userSpaceOnUse"><stop stop-color="#2F79CB"/><stop offset="1" stop-color="#AF51C5"/></linearGradient><linearGradient id="c" x1=".974" y1="-.126" x2="8.806" y2="12.036" gradientUnits="userSpaceOnUse"><stop stop-color="#2F79CB"/><stop offset="1" stop-color="#AF51C5"/></linearGradient><linearGradient id="d" x1="25.299" y1="29.97" x2="25.832" y2="36.196" gradientUnits="userSpaceOnUse"><stop stop-color="#2F79CB"/><stop offset="1" stop-color="#AF51C5"/></linearGradient><linearGradient id="e" x1="32.24" y1="19.068" x2="40.084" y2="31.224" gradientUnits="userSpaceOnUse"><stop stop-color="#2F79CB"/><stop offset="1" stop-color="#AF51C5"/></linearGradient><linearGradient id="f" x1="32.24" y1="-.125" x2="40.08" y2="12.028" gradientUnits="userSpaceOnUse"><stop stop-color="#2F79CB"/><stop offset="1" stop-color="#AF51C5"/></linearGradient><linearGradient id="g" x1="25.299" y1="-1.297" x2="25.833" y2="4.929" gradientUnits="userSpaceOnUse"><stop stop-color="#2F79CB"/><stop offset="1" stop-color="#AF51C5"/></linearGradient><linearGradient id="h" x1="6.104" y1="29.97" x2="6.638" y2="36.196" gradientUnits="userSpaceOnUse"><stop stop-color="#2F79CB"/><stop offset="1" stop-color="#AF51C5"/></linearGradient><linearGradient id="i" x1=".973" y1="19.07" x2="8.813" y2="31.223" gradientUnits="userSpaceOnUse"><stop stop-color="#2F79CB"/><stop offset="1" stop-color="#AF51C5"/></linearGradient></defs></svg>