<svg width="18" height="18" fill="none" xmlns="http://www.w3.org/2000/svg"><path d="M5.22 10.44A5.22 5.22 0 1 0 5.22 0a5.22 5.22 0 0 0 0 10.44Z" fill="#28A8EA"/><path d="M12.78 18a5.22 5.22 0 1 0 0-10.44 5.22 5.22 0 0 0 0 10.44Z" fill="#28A8EA"/><path d="M9 17.64A8.64 8.64 0 0 0 17.64 9 8.64 8.64 0 0 0 9 .36 8.64 8.64 0 0 0 .36 9 8.64 8.64 0 0 0 9 17.64Z" fill="#28A8EA"/><path fill-rule="evenodd" clip-rule="evenodd" d="M6.76 8.836a2.625 2.625 0 0 1-.824-.87 2.402 2.402 0 0 1-.282-1.2 2.158 2.158 0 0 1 .508-1.454 3.06 3.06 0 0 1 1.326-.886 5.118 5.118 0 0 1 1.735-.291 6.77 6.77 0 0 1 1.155.088c.273.042.54.112.8.207.238.08.453.218.627.4a.81.81 0 0 1 .194.538.78.78 0 0 1-.204.561.678.678 0 0 1-.512.213.922.922 0 0 1-.38-.085 6.916 6.916 0 0 0-.906-.331 3.287 3.287 0 0 0-.873-.109 1.992 1.992 0 0 0-1.092.28.909.909 0 0 0-.436.816.821.821 0 0 0 .226.574c.175.182.382.33.61.437.256.127.638.295 1.145.505.056.018.111.04.164.066.496.195.97.44 1.418.728.353.23.651.536.872.896.218.377.327.807.315 1.243a2.5 2.5 0 0 1-.436 1.5 2.593 2.593 0 0 1-1.22.905c-.589.21-1.21.311-1.834.299a5.782 5.782 0 0 1-2.5-.473 1.36 1.36 0 0 1-.515-.4.9.9 0 0 1-.168-.545.712.712 0 0 1 .22-.555.812.812 0 0 1 .568-.2c.231.004.458.062.662.171.254.127.454.222.6.286a3.032 3.032 0 0 0 1.185.232 1.77 1.77 0 0 0 1.119-.298.987.987 0 0 0 .377-.817.868.868 0 0 0-.236-.597 2.512 2.512 0 0 0-.695-.505 16.517 16.517 0 0 0-1.293-.59 8.007 8.007 0 0 1-1.42-.739Z" fill="#fff"/><path opacity=".1" fill-rule="evenodd" clip-rule="evenodd" d="M6.85.263a5.095 5.095 0 0 0-.698-.18 9.387 9.387 0 0 0-6.07 6.07c.044.237.104.47.18.698.064.207.145.408.242.601A8.621 8.621 0 0 1 7.452.504 3.956 3.956 0 0 0 6.85.263Z" fill="#000"/><path opacity=".1" fill-rule="evenodd" clip-rule="evenodd" d="M6.851.263A9.007 9.007 0 0 0 .262 6.85c.064.207.145.408.241.601A8.621 8.621 0 0 1 7.452.504a3.956 3.956 0 0 0-.6-.241ZM17.738 11.15a3.963 3.963 0 0 0-.242-.602 8.621 8.621 0 0 1-6.948 6.948c.194.097.395.177.601.241.229.077.462.137.698.18a9.386 9.386 0 0 0 6.07-6.07 5.097 5.097 0 0 0-.18-.698Z" fill="#000"/><path opacity=".1" fill-rule="evenodd" clip-rule="evenodd" d="M17.496 10.548a8.621 8.621 0 0 1-6.948 6.948c.194.097.395.177.601.241a9.007 9.007 0 0 0 6.589-6.588 3.951 3.951 0 0 0-.242-.601Z" fill="#000"/></svg>